<?xml version="1.0" encoding="utf-8"?>
<!-- Generator: Adobe Illustrator 16.0.0, SVG Export Plug-In . SVG Version: 6.00 Build 0)  -->
<!DOCTYPE svg PUBLIC "-//W3C//DTD SVG 1.1//EN" "http://www.w3.org/Graphics/SVG/1.1/DTD/svg11.dtd">
<svg version="1.1" id="Layer_1" xmlns="http://www.w3.org/2000/svg" xmlns:xlink="http://www.w3.org/1999/xlink" x="0px" y="0px"
	 width="150px" height="150px" viewBox="0 0 150 150" enable-background="new 0 0 150 150" xml:space="preserve">
<g>
	<path fill="#CCCCCC" d="M61.314,27.282h27.207c1.92,0,3.475-1.556,3.475-3.474v-7.836c0-1.917-1.555-3.473-3.475-3.473H61.314
		c-1.919,0-3.474,1.556-3.474,3.473v7.836C57.841,25.727,59.396,27.282,61.314,27.282z"/>
	<path fill="#CCCCCC" d="M21.647,134.017c0,1.924,1.56,3.483,3.483,3.483h8.446c1.923,0,3.483-1.56,3.483-3.483v-11.93H21.647
		V134.017z"/>
	<path fill="#CCCCCC" d="M112.814,134.017c0,1.924,1.561,3.483,3.484,3.483h8.445c1.924,0,3.484-1.56,3.484-3.483v-11.93h-15.414
		V134.017z"/>
	<path fill="#CCCCCC" d="M138.688,78.546h-0.342c-2.848,0-5.404-1.74-6.451-4.389l-10.082-24.532
		c-3.303-10.494-13.031-17.634-24.033-17.634H53.218c-10.707,0-20.236,6.767-23.775,16.856c-0.04,0.113-0.084,0.229-0.132,0.34
		l-11.46,25.062c-1.094,2.55-3.602,4.203-6.375,4.203c-3.831,0-6.937,3.105-6.937,6.937l-0.164,24.958
		c0,3.83,3.106,6.937,6.938,6.937l127.211,0.094c3.832,0,6.938-3.105,6.938-6.937l0.164-24.958
		C145.625,81.652,142.52,78.546,138.688,78.546z M41.124,51.666c1.512-3.445,4.918-5.674,8.683-5.676l51.135-0.021
		c3.92-0.002,7.438,2.41,8.852,6.068l6.592,17.078l-82.856-0.121L41.124,51.666z M29.354,100.261c-4.193,0-7.594-3.4-7.594-7.595
		s3.4-7.594,7.594-7.594c4.195,0,7.595,3.399,7.595,7.594S33.549,100.261,29.354,100.261z M120.523,100.261
		c-4.197,0-7.596-3.4-7.596-7.595s3.398-7.594,7.596-7.594c4.191,0,7.594,3.399,7.594,7.594S124.715,100.261,120.523,100.261z"/>
</g>
</svg>
