<?xml version="1.0" encoding="utf-8"?>
<!-- Generator: Adobe Illustrator 16.0.0, SVG Export Plug-In . SVG Version: 6.00 Build 0)  -->
<!DOCTYPE svg PUBLIC "-//W3C//DTD SVG 1.1//EN" "http://www.w3.org/Graphics/SVG/1.1/DTD/svg11.dtd">
<svg version="1.1" id="Layer_1" xmlns="http://www.w3.org/2000/svg" xmlns:xlink="http://www.w3.org/1999/xlink" x="0px" y="0px"
	 width="150px" height="150px" viewBox="0 0 150 150" enable-background="new 0 0 150 150" xml:space="preserve">
<g>
	<path fill="#4BBD9A" d="M81.115,120.606l7.186-80.894c0.331-5.082-0.625-10.166-2.781-14.778l-4.114-11.011
		c-2.444-5.231-9.881-5.231-12.325,0l-4.115,11.011c-2.155,4.612-3.111,9.696-2.779,14.778l7.04,79.266l-14.471,14.47
		c-0.992,0.992-1.549,2.337-1.549,3.738v1.287c0,1.111,1.152,1.851,2.162,1.384l15.74-7.263c0.759,0.966,1.936,1.583,3.249,1.583
		h0.886h0.886c1.032,0,1.979-0.382,2.707-1.015l14.509,6.694c1.009,0.467,2.161-0.272,2.161-1.384v-1.287
		c0-1.401-0.558-2.746-1.547-3.738L81.115,120.606z"/>
	<path fill="#4BBD9A" d="M58.907,56.514L20.09,84.828c-1.491,1.089-2.374,2.822-2.374,4.668v2.847c0,1.063,1.051,1.806,2.053,1.45
		L60.923,79.22L58.907,56.514z"/>
	<path fill="#4BBD9A" d="M129.909,84.828l-38.48-28.07l-2.007,22.583l40.808,14.451c1.002,0.355,2.054-0.387,2.054-1.45v-2.847
		C132.283,87.65,131.4,85.917,129.909,84.828z"/>
</g>
</svg>
