<?xml version="1.0" encoding="utf-8"?>
<!-- Generator: Adobe Illustrator 16.0.0, SVG Export Plug-In . SVG Version: 6.00 Build 0)  -->
<!DOCTYPE svg PUBLIC "-//W3C//DTD SVG 1.1//EN" "http://www.w3.org/Graphics/SVG/1.1/DTD/svg11.dtd">
<svg version="1.1" id="Layer_1" xmlns="http://www.w3.org/2000/svg" xmlns:xlink="http://www.w3.org/1999/xlink" x="0px" y="0px"
	 width="150px" height="150px" viewBox="0 0 150 150" enable-background="new 0 0 150 150" xml:space="preserve">
<g>
	<path fill="#CCCCCC" d="M130.957,66.122l-2.867-30.989C126.772,20.891,114.825,10,100.524,10H50.063
		C35.43,10,23.205,21.145,21.857,35.715l-2.815,30.407c-0.047,0.495-0.07,0.992-0.07,1.491v38.343
		c0,8.931,7.238,16.167,16.168,16.167h79.722c8.928,0,16.167-7.236,16.167-16.167V67.612
		C131.028,67.114,131.005,66.616,130.957,66.122z M37.947,35.549c0.341-3.905,3.61-6.9,7.53-6.9h59.044
		c3.921,0,7.189,2.996,7.531,6.9l2.165,24.799H35.782L37.947,35.549z M38.915,102.843c-4.058,0-7.346-3.288-7.346-7.344
		s3.288-7.347,7.346-7.347c4.056,0,7.343,3.291,7.343,7.347S42.971,102.843,38.915,102.843z M112.888,103.987
		c-4.055,0-7.344-3.291-7.344-7.346c0-4.058,3.289-7.346,7.344-7.346c4.057,0,7.345,3.288,7.345,7.346
		C120.232,100.696,116.944,103.987,112.888,103.987z"/>
	<path fill="#CCCCCC" d="M31.537,136.63c0,1.86,1.509,3.37,3.368,3.37h8.169c1.861,0,3.369-1.51,3.369-3.37v-11.535H31.537V136.63z"
		/>
	<path fill="#CCCCCC" d="M105.435,136.63c0,1.86,1.509,3.37,3.371,3.37h8.167c1.86,0,3.369-1.51,3.369-3.37v-11.535h-14.907V136.63z
		"/>
</g>
</svg>
